<?xml version="1.0" standalone="no"?>
<!DOCTYPE svg PUBLIC "-//W3C//DTD SVG 20010904//EN"
 "http://www.w3.org/TR/2001/REC-SVG-20010904/DTD/svg10.dtd">
<svg version="1.0" xmlns="http://www.w3.org/2000/svg"
 width="368.000000pt" height="368.000000pt" viewBox="0 0 368.000000 368.000000"
 preserveAspectRatio="xMidYMid meet">
<metadata>
Created by potrace 1.11, written by Peter Selinger 2001-2013
</metadata>
<g transform="translate(0.000000,368.000000) scale(0.100000,-0.100000)"
fill="#000000" stroke="none">
<path d="M2354 3568 c-16 -12 -31 -25 -34 -28 -3 -3 -32 -27 -65 -55 -33 -27
-62 -52 -65 -56 -3 -3 -53 -42 -112 -87 -123 -92 -343 -231 -503 -319 -60 -33
-130 -71 -155 -85 -25 -14 -72 -40 -105 -58 -331 -180 -532 -365 -664 -612
-42 -77 -87 -200 -97 -264 -3 -22 -8 -42 -10 -45 -16 -27 -25 -275 -12 -359
28 -190 114 -402 227 -561 66 -92 212 -242 247 -253 43 -13 83 22 84 72 0 8
-37 51 -83 95 -137 135 -206 237 -270 402 -86 220 -102 367 -63 590 53 300
292 596 627 778 383 207 594 331 759 445 89 61 268 203 328 259 15 14 37 32
49 40 13 8 25 30 29 49 12 67 -53 97 -112 52z"/>
<path d="M2839 3418 c-24 -8 -46 -40 -44 -63 1 -11 18 -117 20 -125 0 -3 4
-27 9 -53 4 -27 9 -59 12 -70 6 -31 34 -204 39 -241 2 -17 6 -53 10 -81 3 -27
8 -61 10 -75 3 -14 7 -52 10 -85 4 -33 8 -78 10 -100 2 -22 7 -71 10 -110 3
-38 8 -88 10 -110 31 -326 23 -742 -19 -930 -46 -208 -114 -375 -194 -485 -47
-64 -136 -151 -194 -190 -115 -77 -312 -131 -494 -135 -61 -1 -117 -5 -123 -9
-18 -11 -31 -51 -24 -75 10 -39 48 -49 168 -46 206 6 421 70 563 167 40 28
142 125 187 179 67 80 164 283 201 422 14 51 28 99 31 107 3 8 5 18 5 23 -1 4
2 26 7 50 32 145 45 531 27 802 -4 65 -9 122 -11 125 -1 3 -6 50 -10 105 -4
55 -8 114 -11 130 -2 17 -6 59 -9 95 -3 36 -8 76 -10 90 -3 14 -7 45 -10 70
-3 25 -8 56 -10 70 -2 14 -7 45 -10 70 -3 25 -10 70 -15 100 -5 30 -12 71 -15
90 -7 46 -17 100 -22 125 -2 11 -6 40 -9 65 -10 83 -42 116 -95 98z"/>
<path d="M1852 2838 c-5 -7 -13 -26 -16 -43 -3 -16 -9 -41 -12 -55 -3 -14 -6
-68 -8 -120 -5 -204 71 -340 205 -365 135 -25 119 216 -25 368 -38 40 -48 44
-64 24 -8 -10 -5 -20 11 -39 12 -15 31 -37 42 -50 58 -69 100 -217 70 -247
-17 -17 -63 0 -105 38 -69 62 -104 221 -78 360 5 25 9 54 9 64 0 23 3 22 63
-18 70 -46 170 -146 204 -203 23 -40 27 -58 26 -117 0 -61 -8 -90 -63 -230
-34 -88 -70 -178 -81 -201 l-19 -41 -97 48 c-53 27 -103 49 -111 49 -7 0 -22
-19 -33 -42 -35 -77 -176 -407 -181 -426 -1 -4 -18 -40 -36 -81 -28 -61 -32
-77 -21 -87 7 -7 58 -31 113 -54 55 -23 103 -45 107 -48 7 -8 -152 -386 -170
-404 -7 -7 -15 -8 -24 -1 -7 5 -38 20 -68 33 -82 34 -144 62 -157 72 -8 6 -2
32 23 93 19 47 34 91 34 98 0 8 -45 35 -100 61 -55 26 -100 50 -100 54 0 5
128 308 178 422 9 19 16 37 17 40 1 3 11 25 22 50 22 49 20 70 -6 70 -17 0
-22 -9 -90 -163 l-30 -68 -28 14 c-15 8 -50 25 -78 37 -27 12 -75 34 -105 49
-58 27 -90 29 -90 6 0 -19 13 -27 140 -85 135 -63 145 -70 132 -96 -31 -61
-52 -107 -52 -115 0 -8 -41 -104 -61 -141 -22 -42 -11 -54 91 -102 55 -26 100
-51 100 -55 0 -4 -16 -46 -35 -94 -19 -48 -35 -89 -35 -93 0 -3 39 -23 88 -46
48 -22 115 -53 150 -69 34 -15 62 -31 62 -34 0 -5 -79 -196 -100 -240 -5 -11
-21 -49 -36 -85 -14 -36 -34 -83 -44 -105 -10 -22 -39 -92 -65 -155 -27 -63
-51 -119 -55 -125 -12 -19 -5 -40 16 -43 24 -3 23 -6 109 203 36 88 70 169 75
180 39 88 60 137 60 143 0 5 12 33 27 63 15 30 27 56 27 59 1 3 25 62 54 132
50 118 55 126 75 118 12 -4 97 -42 189 -82 118 -54 171 -72 182 -66 9 5 16 13
16 18 0 5 11 33 23 62 13 29 30 68 37 86 7 17 17 32 23 32 6 0 73 -23 149 -51
136 -50 173 -55 166 -22 -3 15 -32 28 -269 113 -30 11 -63 20 -71 20 -11 0
-27 -28 -50 -85 -51 -131 -40 -126 -160 -73 -57 25 -131 58 -166 74 -55 23
-63 30 -57 48 3 12 7 26 9 31 1 6 10 28 20 50 10 22 27 59 37 82 11 24 28 62
38 86 11 23 26 59 35 79 l15 37 53 -23 c29 -13 96 -44 149 -69 53 -25 101 -42
107 -38 6 3 24 37 41 74 17 37 45 97 61 133 17 36 30 67 30 69 0 2 15 36 34
77 18 40 44 97 56 125 27 63 19 99 -16 75 -6 -4 -57 -113 -114 -242 -57 -129
-107 -239 -111 -244 -8 -9 -38 4 -231 93 -36 17 -71 31 -77 31 -9 0 -57 -80
-52 -87 3 -6 0 -19 -8 -31 -6 -11 -28 -5 -101 24 -51 21 -94 44 -97 50 -4 11
100 267 118 290 5 6 10 19 12 30 2 10 14 39 27 64 12 25 22 46 22 47 -1 2 5
18 13 37 8 20 15 39 15 44 0 5 6 14 13 20 9 8 41 -3 117 -39 121 -58 113 -61
156 55 15 39 32 85 39 101 27 62 87 221 90 237 2 10 21 34 42 53 104 97 234
126 346 78 43 -19 45 -23 16 -43 -11 -8 -46 -34 -77 -58 -65 -49 -124 -82
-158 -88 -26 -5 -48 24 -38 50 10 25 67 55 114 60 47 5 67 23 46 44 -9 10 -27
12 -58 7 -104 -16 -172 -89 -148 -159 13 -41 53 -61 102 -51 71 15 300 181
306 222 3 18 -9 27 -65 54 -117 56 -246 44 -361 -32 -24 -16 -45 -29 -47 -29
-2 0 -6 17 -10 38 -15 90 -116 213 -255 310 -75 53 -100 62 -118 40z"/>
</g>
</svg>
